<?xml version="1.0" encoding="UTF-8" standalone="no"?>
<!DOCTYPE svg PUBLIC "-//W3C//DTD SVG 1.1//EN"
"http://www.w3.org/Graphics/SVG/1.1/DTD/svg11.dtd">
<svg viewBox="0 0 935 1210" version="1.1" xmlns="http://www.w3.org/2000/svg" xmlns:xlink="http://www.w3.org/1999/xlink">
<defs>
<style type="text/css"><![CDATA[
.g0_2{
fill: #FFFFFF;
}
.g1_2{
fill: none;
stroke: #000000;
stroke-width: 0.7638889;
stroke-linecap: butt;
stroke-linejoin: miter;
}
.g2_2{
fill: #D9D9D9;
}
.g3_2{
}
]]></style>
</defs>
<path fill-rule="evenodd" d="M49.9,1153.8H608.1v-37.3H49.9v37.3Z" class="g0_2" />
<path d="M62.3,1111.5l808.4,.9" class="g1_2" />
<path fill-rule="evenodd" d="M777,1151.8h93.3v-37.4H777v37.4Z" class="g0_2" />
<path fill-rule="evenodd" d="M68.2,752.5h93.4v-33H68.2v33Z" class="g2_2" />
<path fill-rule="evenodd" d="M76.1,752h77.6V719.5H76.1V752Z" class="g2_2" />
<path fill-rule="evenodd" d="M162.3,752.5h295v-33h-295v33Z" class="g2_2" />
<path fill-rule="evenodd" d="M170.2,752H449.4V719.5H170.2V752Z" class="g2_2" />
<path fill-rule="evenodd" d="M67.3,719.5H68v-.7h-.7v.7Z" class="g3_2" />
<path fill-rule="evenodd" d="M67.3,719.5H68v-.7h-.7v.7Z" class="g3_2" />
<path fill-rule="evenodd" d="M68,719.5h93.6v-.7H68v.7Z" class="g3_2" />
<path fill-rule="evenodd" d="M161.5,719.5h.8v-.7h-.8v.7Z" class="g3_2" />
<path fill-rule="evenodd" d="M162.3,719.5H457.1v-.7H162.3v.7Z" class="g3_2" />
<path fill-rule="evenodd" d="M457.1,719.5h.8v-.7h-.8v.7Z" class="g3_2" />
<path fill-rule="evenodd" d="M457.1,719.5h.8v-.7h-.8v.7Z" class="g3_2" />
<path fill-rule="evenodd" d="M67.3,752.5H68v-33h-.7v33Z" class="g3_2" />
<path fill-rule="evenodd" d="M161.5,752.5h.8v-33h-.8v33Z" class="g3_2" />
<path fill-rule="evenodd" d="M457.1,752.5h.8v-33h-.8v33Z" class="g3_2" />
<path fill-rule="evenodd" d="M67.3,753.2H68v-.7h-.7v.7Z" class="g3_2" />
<path fill-rule="evenodd" d="M68,753.2h93.6v-.7H68v.7Z" class="g3_2" />
<path fill-rule="evenodd" d="M161.5,753.2h.8v-.7h-.8v.7Z" class="g3_2" />
<path fill-rule="evenodd" d="M162.3,753.2H457.1v-.7H162.3v.7Z" class="g3_2" />
<path fill-rule="evenodd" d="M457.1,753.2h.8v-.7h-.8v.7Z" class="g3_2" />
<path fill-rule="evenodd" d="M67.3,786.4H68V753.2h-.7v33.2Z" class="g3_2" />
<path fill-rule="evenodd" d="M161.5,786.4h.8V753.2h-.8v33.2Z" class="g3_2" />
<path fill-rule="evenodd" d="M457.1,786.4h.8V753.2h-.8v33.2Z" class="g3_2" />
<path fill-rule="evenodd" d="M67.3,787.2H68v-.8h-.7v.8Z" class="g3_2" />
<path fill-rule="evenodd" d="M68,787.2h93.6v-.8H68v.8Z" class="g3_2" />
<path fill-rule="evenodd" d="M161.5,787.2h.8v-.8h-.8v.8Z" class="g3_2" />
<path fill-rule="evenodd" d="M162.3,787.2H457.1v-.8H162.3v.8Z" class="g3_2" />
<path fill-rule="evenodd" d="M457.1,787.2h.8v-.8h-.8v.8Z" class="g3_2" />
<path fill-rule="evenodd" d="M67.3,820.2H68v-33h-.7v33Z" class="g3_2" />
<path fill-rule="evenodd" d="M161.5,820.2h.8v-33h-.8v33Z" class="g3_2" />
<path fill-rule="evenodd" d="M457.1,820.2h.8v-33h-.8v33Z" class="g3_2" />
<path fill-rule="evenodd" d="M67.3,820.9H68v-.7h-.7v.7Z" class="g3_2" />
<path fill-rule="evenodd" d="M68,820.9h93.6v-.7H68v.7Z" class="g3_2" />
<path fill-rule="evenodd" d="M161.5,820.9h.8v-.7h-.8v.7Z" class="g3_2" />
<path fill-rule="evenodd" d="M162.3,820.9H457.1v-.7H162.3v.7Z" class="g3_2" />
<path fill-rule="evenodd" d="M457.1,820.9h.8v-.7h-.8v.7Z" class="g3_2" />
<path fill-rule="evenodd" d="M67.3,853.9H68v-33h-.7v33Z" class="g3_2" />
<path fill-rule="evenodd" d="M161.5,853.9h.8v-33h-.8v33Z" class="g3_2" />
<path fill-rule="evenodd" d="M457.1,853.9h.8v-33h-.8v33Z" class="g3_2" />
<path fill-rule="evenodd" d="M67.3,854.6H68v-.7h-.7v.7Z" class="g3_2" />
<path fill-rule="evenodd" d="M68,854.6h93.6v-.7H68v.7Z" class="g3_2" />
<path fill-rule="evenodd" d="M161.5,854.6h.8v-.7h-.8v.7Z" class="g3_2" />
<path fill-rule="evenodd" d="M162.3,854.6H457.1v-.7H162.3v.7Z" class="g3_2" />
<path fill-rule="evenodd" d="M457.1,854.6h.8v-.7h-.8v.7Z" class="g3_2" />
<path fill-rule="evenodd" d="M67.3,887.6H68v-33h-.7v33Z" class="g3_2" />
<path fill-rule="evenodd" d="M161.5,887.6h.8v-33h-.8v33Z" class="g3_2" />
<path fill-rule="evenodd" d="M457.1,887.6h.8v-33h-.8v33Z" class="g3_2" />
<path fill-rule="evenodd" d="M67.3,888.4H68v-.8h-.7v.8Z" class="g3_2" />
<path fill-rule="evenodd" d="M68,888.4h93.6v-.8H68v.8Z" class="g3_2" />
<path fill-rule="evenodd" d="M161.5,888.4h.8v-.8h-.8v.8Z" class="g3_2" />
<path fill-rule="evenodd" d="M162.3,888.4H457.1v-.8H162.3v.8Z" class="g3_2" />
<path fill-rule="evenodd" d="M457.1,888.4h.8v-.8h-.8v.8Z" class="g3_2" />
<path fill-rule="evenodd" d="M67.3,921.4H68v-33h-.7v33Z" class="g3_2" />
<path fill-rule="evenodd" d="M161.5,921.4h.8v-33h-.8v33Z" class="g3_2" />
<path fill-rule="evenodd" d="M457.1,921.4h.8v-33h-.8v33Z" class="g3_2" />
<path fill-rule="evenodd" d="M67.3,922.1H68v-.7h-.7v.7Z" class="g3_2" />
<path fill-rule="evenodd" d="M68,922.1h93.6v-.7H68v.7Z" class="g3_2" />
<path fill-rule="evenodd" d="M161.5,922.1h.8v-.7h-.8v.7Z" class="g3_2" />
<path fill-rule="evenodd" d="M162.3,922.1H457.1v-.7H162.3v.7Z" class="g3_2" />
<path fill-rule="evenodd" d="M457.1,922.1h.8v-.7h-.8v.7Z" class="g3_2" />
<path fill-rule="evenodd" d="M67.3,955.1H68v-33h-.7v33Z" class="g3_2" />
<path fill-rule="evenodd" d="M161.5,955.1h.8v-33h-.8v33Z" class="g3_2" />
<path fill-rule="evenodd" d="M457.1,955.1h.8v-33h-.8v33Z" class="g3_2" />
<path fill-rule="evenodd" d="M67.3,955.9H68v-.8h-.7v.8Z" class="g3_2" />
<path fill-rule="evenodd" d="M68,955.9h93.6v-.8H68v.8Z" class="g3_2" />
<path fill-rule="evenodd" d="M161.5,955.9h.8v-.8h-.8v.8Z" class="g3_2" />
<path fill-rule="evenodd" d="M162.3,955.9H457.1v-.8H162.3v.8Z" class="g3_2" />
<path fill-rule="evenodd" d="M457.1,955.9h.8v-.8h-.8v.8Z" class="g3_2" />
<path fill-rule="evenodd" d="M67.3,989.1H68V955.9h-.7v33.2Z" class="g3_2" />
<path fill-rule="evenodd" d="M161.5,989.1h.8V955.9h-.8v33.2Z" class="g3_2" />
<path fill-rule="evenodd" d="M457.1,989.1h.8V955.9h-.8v33.2Z" class="g3_2" />
<path fill-rule="evenodd" d="M67.3,989.8H68v-.7h-.7v.7Z" class="g3_2" />
<path fill-rule="evenodd" d="M68,989.8h93.6v-.7H68v.7Z" class="g3_2" />
<path fill-rule="evenodd" d="M161.5,989.8h.8v-.7h-.8v.7Z" class="g3_2" />
<path fill-rule="evenodd" d="M162.3,989.8H457.1v-.7H162.3v.7Z" class="g3_2" />
<path fill-rule="evenodd" d="M457.1,989.8h.8v-.7h-.8v.7Z" class="g3_2" />
<path fill-rule="evenodd" d="M67.3,1022.8H68v-33h-.7v33Z" class="g3_2" />
<path fill-rule="evenodd" d="M161.5,1022.8h.8v-33h-.8v33Z" class="g3_2" />
<path fill-rule="evenodd" d="M457.1,1022.8h.8v-33h-.8v33Z" class="g3_2" />
<path fill-rule="evenodd" d="M67.3,1023.5H68v-.7h-.7v.7Z" class="g3_2" />
<path fill-rule="evenodd" d="M68,1023.5h93.6v-.7H68v.7Z" class="g3_2" />
<path fill-rule="evenodd" d="M161.5,1023.5h.8v-.7h-.8v.7Z" class="g3_2" />
<path fill-rule="evenodd" d="M162.3,1023.5H457.1v-.7H162.3v.7Z" class="g3_2" />
<path fill-rule="evenodd" d="M457.1,1023.5h.8v-.7h-.8v.7Z" class="g3_2" />
<path fill-rule="evenodd" d="M67.3,1056.5H68v-33h-.7v33Z" class="g3_2" />
<path fill-rule="evenodd" d="M67.3,1057.2H68v-.7h-.7v.7Z" class="g3_2" />
<path fill-rule="evenodd" d="M67.3,1057.2H68v-.7h-.7v.7Z" class="g3_2" />
<path fill-rule="evenodd" d="M68,1057.2h93.6v-.7H68v.7Z" class="g3_2" />
<path fill-rule="evenodd" d="M161.5,1056.5h.8v-33h-.8v33Z" class="g3_2" />
<path fill-rule="evenodd" d="M161.5,1057.2h.8v-.7h-.8v.7Z" class="g3_2" />
<path fill-rule="evenodd" d="M162.3,1057.2H457.1v-.7H162.3v.7Z" class="g3_2" />
<path fill-rule="evenodd" d="M457.1,1056.5h.8v-33h-.8v33Z" class="g3_2" />
<path fill-rule="evenodd" d="M457.1,1057.2h.8v-.7h-.8v.7Z" class="g3_2" />
<path fill-rule="evenodd" d="M457.1,1057.2h.8v-.7h-.8v.7Z" class="g3_2" />
<path fill-rule="evenodd" d="M475.3,752.5h97v-33h-97v33Z" class="g2_2" />
<path fill-rule="evenodd" d="M483.2,752h81.2V719.5H483.2V752Z" class="g2_2" />
<path fill-rule="evenodd" d="M573,752.5H876.8v-33H573v33Z" class="g2_2" />
<path fill-rule="evenodd" d="M580.9,752H869V719.5H580.9V752Z" class="g2_2" />
<path fill-rule="evenodd" d="M474.5,719.5h.8v-.7h-.8v.7Z" class="g3_2" />
<path fill-rule="evenodd" d="M474.5,719.5h.8v-.7h-.8v.7Z" class="g3_2" />
<path fill-rule="evenodd" d="M475.3,719.5h97v-.7h-97v.7Z" class="g3_2" />
<path fill-rule="evenodd" d="M572.3,719.5h.7v-.7h-.7v.7Z" class="g3_2" />
<path fill-rule="evenodd" d="M573,719.5H876.8v-.7H573v.7Z" class="g3_2" />
<path fill-rule="evenodd" d="M876.9,719.5h.7v-.7h-.7v.7Z" class="g3_2" />
<path fill-rule="evenodd" d="M876.9,719.5h.7v-.7h-.7v.7Z" class="g3_2" />
<path fill-rule="evenodd" d="M474.5,752.5h.8v-33h-.8v33Z" class="g3_2" />
<path fill-rule="evenodd" d="M572.3,752.5h.7v-33h-.7v33Z" class="g3_2" />
<path fill-rule="evenodd" d="M876.9,752.5h.7v-33h-.7v33Z" class="g3_2" />
<path fill-rule="evenodd" d="M474.5,753.2h.8v-.7h-.8v.7Z" class="g3_2" />
<path fill-rule="evenodd" d="M475.3,753.2h97v-.7h-97v.7Z" class="g3_2" />
<path fill-rule="evenodd" d="M572.3,753.2h.7v-.7h-.7v.7Z" class="g3_2" />
<path fill-rule="evenodd" d="M573,753.2H876.8v-.7H573v.7Z" class="g3_2" />
<path fill-rule="evenodd" d="M876.9,753.2h.7v-.7h-.7v.7Z" class="g3_2" />
<path fill-rule="evenodd" d="M474.5,786.4h.8V753.2h-.8v33.2Z" class="g3_2" />
<path fill-rule="evenodd" d="M572.3,786.4h.7V753.2h-.7v33.2Z" class="g3_2" />
<path fill-rule="evenodd" d="M876.9,786.4h.7V753.2h-.7v33.2Z" class="g3_2" />
<path fill-rule="evenodd" d="M474.5,787.2h.8v-.8h-.8v.8Z" class="g3_2" />
<path fill-rule="evenodd" d="M475.3,787.2h97v-.8h-97v.8Z" class="g3_2" />
<path fill-rule="evenodd" d="M572.3,787.2h.7v-.8h-.7v.8Z" class="g3_2" />
<path fill-rule="evenodd" d="M573,787.2H876.8v-.8H573v.8Z" class="g3_2" />
<path fill-rule="evenodd" d="M876.9,787.2h.7v-.8h-.7v.8Z" class="g3_2" />
<path fill-rule="evenodd" d="M474.5,820.2h.8v-33h-.8v33Z" class="g3_2" />
<path fill-rule="evenodd" d="M572.3,820.2h.7v-33h-.7v33Z" class="g3_2" />
<path fill-rule="evenodd" d="M876.9,820.2h.7v-33h-.7v33Z" class="g3_2" />
<path fill-rule="evenodd" d="M474.5,820.9h.8v-.7h-.8v.7Z" class="g3_2" />
<path fill-rule="evenodd" d="M475.3,820.9h97v-.7h-97v.7Z" class="g3_2" />
<path fill-rule="evenodd" d="M572.3,820.9h.7v-.7h-.7v.7Z" class="g3_2" />
<path fill-rule="evenodd" d="M573,820.9H876.8v-.7H573v.7Z" class="g3_2" />
<path fill-rule="evenodd" d="M876.9,820.9h.7v-.7h-.7v.7Z" class="g3_2" />
<path fill-rule="evenodd" d="M474.5,853.9h.8v-33h-.8v33Z" class="g3_2" />
<path fill-rule="evenodd" d="M572.3,853.9h.7v-33h-.7v33Z" class="g3_2" />
<path fill-rule="evenodd" d="M876.9,853.9h.7v-33h-.7v33Z" class="g3_2" />
<path fill-rule="evenodd" d="M474.5,854.6h.8v-.7h-.8v.7Z" class="g3_2" />
<path fill-rule="evenodd" d="M475.3,854.6h97v-.7h-97v.7Z" class="g3_2" />
<path fill-rule="evenodd" d="M572.3,854.6h.7v-.7h-.7v.7Z" class="g3_2" />
<path fill-rule="evenodd" d="M573,854.6H876.8v-.7H573v.7Z" class="g3_2" />
<path fill-rule="evenodd" d="M876.9,854.6h.7v-.7h-.7v.7Z" class="g3_2" />
<path fill-rule="evenodd" d="M474.5,887.6h.8v-33h-.8v33Z" class="g3_2" />
<path fill-rule="evenodd" d="M572.3,887.6h.7v-33h-.7v33Z" class="g3_2" />
<path fill-rule="evenodd" d="M876.9,887.6h.7v-33h-.7v33Z" class="g3_2" />
<path fill-rule="evenodd" d="M474.5,888.4h.8v-.8h-.8v.8Z" class="g3_2" />
<path fill-rule="evenodd" d="M475.3,888.4h97v-.8h-97v.8Z" class="g3_2" />
<path fill-rule="evenodd" d="M572.3,888.4h.7v-.8h-.7v.8Z" class="g3_2" />
<path fill-rule="evenodd" d="M573,888.4H876.8v-.8H573v.8Z" class="g3_2" />
<path fill-rule="evenodd" d="M876.9,888.4h.7v-.8h-.7v.8Z" class="g3_2" />
<path fill-rule="evenodd" d="M474.5,921.4h.8v-33h-.8v33Z" class="g3_2" />
<path fill-rule="evenodd" d="M572.3,921.4h.7v-33h-.7v33Z" class="g3_2" />
<path fill-rule="evenodd" d="M876.9,921.4h.7v-33h-.7v33Z" class="g3_2" />
<path fill-rule="evenodd" d="M474.5,922.1h.8v-.7h-.8v.7Z" class="g3_2" />
<path fill-rule="evenodd" d="M475.3,922.1h97v-.7h-97v.7Z" class="g3_2" />
<path fill-rule="evenodd" d="M572.3,922.1h.7v-.7h-.7v.7Z" class="g3_2" />
<path fill-rule="evenodd" d="M573,922.1H876.8v-.7H573v.7Z" class="g3_2" />
<path fill-rule="evenodd" d="M876.9,922.1h.7v-.7h-.7v.7Z" class="g3_2" />
<path fill-rule="evenodd" d="M474.5,955.1h.8v-33h-.8v33Z" class="g3_2" />
<path fill-rule="evenodd" d="M572.3,955.1h.7v-33h-.7v33Z" class="g3_2" />
<path fill-rule="evenodd" d="M876.9,955.1h.7v-33h-.7v33Z" class="g3_2" />
<path fill-rule="evenodd" d="M474.5,955.9h.8v-.8h-.8v.8Z" class="g3_2" />
<path fill-rule="evenodd" d="M475.3,955.9h97v-.8h-97v.8Z" class="g3_2" />
<path fill-rule="evenodd" d="M572.3,955.9h.7v-.8h-.7v.8Z" class="g3_2" />
<path fill-rule="evenodd" d="M573,955.9H876.8v-.8H573v.8Z" class="g3_2" />
<path fill-rule="evenodd" d="M876.9,955.9h.7v-.8h-.7v.8Z" class="g3_2" />
<path fill-rule="evenodd" d="M474.5,989.1h.8V955.9h-.8v33.2Z" class="g3_2" />
<path fill-rule="evenodd" d="M572.3,989.1h.7V955.9h-.7v33.2Z" class="g3_2" />
<path fill-rule="evenodd" d="M876.9,989.1h.7V955.9h-.7v33.2Z" class="g3_2" />
<path fill-rule="evenodd" d="M474.5,989.8h.8v-.7h-.8v.7Z" class="g3_2" />
<path fill-rule="evenodd" d="M475.3,989.8h97v-.7h-97v.7Z" class="g3_2" />
<path fill-rule="evenodd" d="M572.3,989.8h.7v-.7h-.7v.7Z" class="g3_2" />
<path fill-rule="evenodd" d="M573,989.8H876.8v-.7H573v.7Z" class="g3_2" />
<path fill-rule="evenodd" d="M876.9,989.8h.7v-.7h-.7v.7Z" class="g3_2" />
<path fill-rule="evenodd" d="M474.5,1022.8h.8v-33h-.8v33Z" class="g3_2" />
<path fill-rule="evenodd" d="M572.3,1022.8h.7v-33h-.7v33Z" class="g3_2" />
<path fill-rule="evenodd" d="M876.9,1022.8h.7v-33h-.7v33Z" class="g3_2" />
<path fill-rule="evenodd" d="M474.5,1023.5h.8v-.7h-.8v.7Z" class="g3_2" />
<path fill-rule="evenodd" d="M475.3,1023.5h97v-.7h-97v.7Z" class="g3_2" />
<path fill-rule="evenodd" d="M572.3,1023.5h.7v-.7h-.7v.7Z" class="g3_2" />
<path fill-rule="evenodd" d="M573,1023.5H876.8v-.7H573v.7Z" class="g3_2" />
<path fill-rule="evenodd" d="M876.9,1023.5h.7v-.7h-.7v.7Z" class="g3_2" />
<path fill-rule="evenodd" d="M474.5,1056.5h.8v-33h-.8v33Z" class="g3_2" />
<path fill-rule="evenodd" d="M474.5,1057.2h.8v-.7h-.8v.7Z" class="g3_2" />
<path fill-rule="evenodd" d="M474.5,1057.2h.8v-.7h-.8v.7Z" class="g3_2" />
<path fill-rule="evenodd" d="M475.3,1057.2h97v-.7h-97v.7Z" class="g3_2" />
<path fill-rule="evenodd" d="M572.3,1056.5h.7v-33h-.7v33Z" class="g3_2" />
<path fill-rule="evenodd" d="M572.3,1057.2h.7v-.7h-.7v.7Z" class="g3_2" />
<path fill-rule="evenodd" d="M573,1057.2H876.8v-.7H573v.7Z" class="g3_2" />
<path fill-rule="evenodd" d="M876.9,1056.5h.7v-33h-.7v33Z" class="g3_2" />
<path fill-rule="evenodd" d="M876.9,1057.2h.7v-.7h-.7v.7Z" class="g3_2" />
<path fill-rule="evenodd" d="M876.9,1057.2h.7v-.7h-.7v.7Z" class="g3_2" />
</svg>