<?xml version="1.0" encoding="UTF-8" standalone="no"?>
<!DOCTYPE svg PUBLIC "-//W3C//DTD SVG 1.1//EN"
"http://www.w3.org/Graphics/SVG/1.1/DTD/svg11.dtd">
<svg viewBox="0 0 935 1210" version="1.1" xmlns="http://www.w3.org/2000/svg" xmlns:xlink="http://www.w3.org/1999/xlink">
<defs>
<style type="text/css"><![CDATA[
.g0_1{
fill: #FFFFFF;
}
.g1_1{
fill: none;
stroke: #000000;
stroke-width: 0.7638889;
stroke-linecap: butt;
stroke-linejoin: miter;
}
.g2_1{
}
.g3_1{
fill: none;
stroke: #000000;
stroke-width: 1.5277778;
stroke-linecap: butt;
stroke-linejoin: miter;
stroke-opacity: 0.74118;
stroke-dasharray: 2,2;
}
]]></style>
</defs>
<path fill-rule="evenodd" d="M49.9,1153.8H608.1v-37.3H49.9v37.3Z" class="g0_1" />
<path d="M62.3,1111.5l808.4,.9" class="g1_1" />
<path fill-rule="evenodd" d="M777,1151.8h93.3v-37.4H777v37.4Z" class="g0_1" />
<image preserveAspectRatio="none" x="51" y="71" width="338" height="103" xlink:href="img/1.png" />
<path fill-rule="evenodd" d="M51.9,743.9h.7v-.7h-.7v.7Z" class="g2_1" />
<path fill-rule="evenodd" d="M51.9,743.9h.7v-.7h-.7v.7Z" class="g2_1" />
<path fill-rule="evenodd" d="M52.6,743.9H884v-.7H52.6v.7Z" class="g2_1" />
<path fill-rule="evenodd" d="M884,743.9h.7v-.7H884v.7Z" class="g2_1" />
<path fill-rule="evenodd" d="M884,743.9h.7v-.7H884v.7Z" class="g2_1" />
<path fill-rule="evenodd" d="M51.9,1069.7h.7V743.9h-.7v325.8Z" class="g2_1" />
<path fill-rule="evenodd" d="M51.9,1070.4h.7v-.7h-.7v.7Z" class="g2_1" />
<path fill-rule="evenodd" d="M51.9,1070.4h.7v-.7h-.7v.7Z" class="g2_1" />
<path fill-rule="evenodd" d="M52.6,1070.4H884v-.7H52.6v.7Z" class="g2_1" />
<path fill-rule="evenodd" d="M884,1069.7h.7V743.9H884v325.8Z" class="g2_1" />
<path fill-rule="evenodd" d="M884,1070.4h.7v-.7H884v.7Z" class="g2_1" />
<path fill-rule="evenodd" d="M884,1070.4h.7v-.7H884v.7Z" class="g2_1" />
<path d="M51.5,237.9l837.1,-2.1M54.9,631.1L892,629M465.9,623.6L464.1,242.2" class="g3_1" />
</svg>